#N canvas 445 152 677 501 10;
#X declare -lib mrpeach;
#X obj 575 -99 import mrpeach;
#X msg 254 13 open \$1;
#X obj 328 -39 hradio 12 1 0 8 empty empty empty 0 -8 0 10 -262144
-1 -1 2;
#X msg 391 12 close;
#X obj 280 134 print;
#X obj 328 104 unpackOSC;
#X obj 328 42 comport 2 57600;
#X floatatom 448 223 5 0 0 0 - - -;
#X text 472 -42 Choose a port;
#X text 473 106 Unpacks the OSC message;
#X text 472 135 Routes the incoming messages;
#X text 330 -57 0 1 2 3 4 5 6 7;
#X obj 448 182 routeOSC /wifi;
#X floatatom 197 224 5 0 0 0 - - -;
#X floatatom 328 224 5 0 0 0 - - -;
#X obj 197 183 routeOSC /pulse;
#X obj 328 183 routeOSC /emf;
#X obj 328 134 routeOSC /reverb;
#X obj 328 73 mrpeach/slipdec 131072;
#X connect 1 0 6 0;
#X connect 2 0 1 0;
#X connect 3 0 6 0;
#X connect 5 0 4 0;
#X connect 5 0 17 0;
#X connect 6 0 18 0;
#X connect 12 0 7 0;
#X connect 15 0 13 0;
#X connect 16 0 14 0;
#X connect 17 0 12 0;
#X connect 17 0 16 0;
#X connect 17 0 15 0;
#X connect 18 0 5 0;
#X coords 0 501 1 500 85 60 0;
