#N canvas 281 199 476 373 10;
#X msg 41 96 open \$1;
#X obj 68 36 hradio 18 1 0 8 empty empty empty 0 -8 0 10 -262144 -1
-1 2;
#X msg 178 95 close;
#X obj 67 217 print;
#X obj 115 187 unpackOSC;
#X obj 115 156 mrpeach/slipdec 65536;
#X obj 115 125 comport 2 57600;
#X obj 115 217 routeOSC /super;
#X obj 115 247 routeOSC /ledVal;
#X floatatom 115 276 5 0 0 0 - - -;
#X text 72 18 0 1 2 3 4 5 6 7;
#X text 264 36 Choose a port;
#X text 260 189 Unpacks the OSC message;
#X text 259 218 Routes the incoming messages;
#X connect 0 0 6 0;
#X connect 1 0 0 0;
#X connect 2 0 6 0;
#X connect 4 0 3 0;
#X connect 4 0 7 0;
#X connect 5 0 4 0;
#X connect 6 0 5 0;
#X connect 7 0 8 0;
#X connect 8 0 9 0;
