#N canvas 532 22 741 542 10;
#X declare -lib mrpeach;
#X text 264 36 Choose a port;
#X text 260 189 Unpacks the OSC message;
#X text 259 218 Routes the incoming messages;
#X obj -29 -18 import mrpeach;
#X msg 84 97 open \$1;
#X obj 111 37 hradio 18 1 0 8 empty empty empty 0 -8 0 10 -262144 -1
-1 2;
#X msg 221 96 close;
#X obj 91 188 print;
#X obj 158 157 mrpeach/slipdec 65536;
#X obj 158 126 comport 2 57600;
#X floatatom 158 277 5 0 0 0 - - -;
#X text 115 19 0 1 2 3 4 5 6 7;
#X obj 472 187 osc~ 440;
#X obj 472 218 *~;
#X obj 472 258 dac~ 1 2;
#X msg 472 107 64;
#X obj 472 137 mtof;
#X obj 472 162 sig~;
#X floatatom 569 257 5 0 0 0 - - -;
#X obj 569 229 / 20;
#X obj 158 188 unpackOSC;
#X obj 158 218 routeOSC /analog;
#X obj 158 248 routeOSC /0;
#X floatatom 67 278 5 0 0 0 - - -;
#X obj 67 249 routeOSC /1;
#X obj 67 310 s velocity1;
#X obj 469 367 osc~ 440;
#X obj 469 398 *~;
#X obj 469 438 dac~ 1 2;
#X msg 469 287 60;
#X obj 469 317 mtof;
#X obj 469 342 sig~;
#X floatatom 566 437 5 0 0 0 - - -;
#X obj 566 409 / 20;
#X obj 569 198 r velocity1;
#X obj 158 309 s velocity2;
#X obj 566 378 r velocity2;
#X connect 4 0 9 0;
#X connect 5 0 4 0;
#X connect 6 0 9 0;
#X connect 8 0 20 0;
#X connect 9 0 8 0;
#X connect 10 0 35 0;
#X connect 12 0 13 0;
#X connect 13 0 14 0;
#X connect 13 0 14 1;
#X connect 15 0 16 0;
#X connect 16 0 17 0;
#X connect 17 0 12 0;
#X connect 18 0 13 1;
#X connect 19 0 18 0;
#X connect 20 0 7 0;
#X connect 20 0 21 0;
#X connect 21 0 22 0;
#X connect 21 0 24 0;
#X connect 22 0 10 0;
#X connect 23 0 25 0;
#X connect 24 0 23 0;
#X connect 26 0 27 0;
#X connect 27 0 28 0;
#X connect 27 0 28 1;
#X connect 29 0 30 0;
#X connect 30 0 31 0;
#X connect 31 0 26 0;
#X connect 32 0 27 1;
#X connect 33 0 32 0;
#X connect 34 0 19 0;
#X connect 36 0 33 0;
