#N canvas 421 22 485 536 10;
#X declare -lib mrpeach;
#X text 264 36 Choose a port;
#X text 260 189 Unpacks the OSC message;
#X text 259 218 Routes the incoming messages;
#X obj -29 -18 import mrpeach;
#X msg 84 97 open \$1;
#X obj 111 37 hradio 18 1 0 8 empty empty empty 0 -8 0 10 -262144 -1
-1 1;
#X msg 221 96 close;
#X obj 91 188 print;
#X obj 158 157 mrpeach/slipdec 65536;
#X obj 158 126 comport 2 57600;
#X floatatom 93 277 5 0 0 0 - - -;
#X text 115 19 0 1 2 3 4 5 6 7;
#X obj 158 188 unpackOSC;
#X obj 158 218 routeOSC /analog;
#X floatatom -14 276 5 0 0 0 - - -;
#X obj -14 308 s velocity1;
#X obj 93 309 s velocity2;
#X obj -14 247 routeOSC /wifi1;
#X obj 93 248 routeOSC /wifi2;
#X floatatom 197 278 5 0 0 0 - - -;
#X obj 197 249 routeOSC /wifi3;
#X floatatom 297 278 5 0 0 0 - - -;
#X obj 297 249 routeOSC /wifi4;
#X floatatom 92 361 5 0 0 0 - - -;
#X floatatom -15 360 5 0 0 0 - - -;
#X floatatom 196 362 5 0 0 0 - - -;
#X floatatom 296 362 5 0 0 0 - - -;
#X obj -15 331 routeOSC /wifi5;
#X obj 92 332 routeOSC /wifi6;
#X obj 196 333 routeOSC /wifi7;
#X obj 296 333 routeOSC /wifi8;
#X floatatom -15 448 5 0 0 0 - - -;
#X obj -15 419 routeOSC /EMF;
#X floatatom 93 448 5 0 0 0 - - -;
#X obj 93 419 routeOSC /Pulse;
#X obj 197 310 s velocity3;
#X obj 297 310 s velocity4;
#X obj -15 392 s velocity5;
#X obj 92 393 s velocity6;
#X obj 196 394 s velocity7;
#X obj 296 394 s velocity8;
#X obj -15 480 s velocityEMF;
#X obj 93 480 s velocityPulse;
#X connect 4 0 9 0;
#X connect 5 0 4 0;
#X connect 6 0 9 0;
#X connect 8 0 12 0;
#X connect 9 0 8 0;
#X connect 10 0 16 0;
#X connect 12 0 7 0;
#X connect 12 0 13 0;
#X connect 13 0 17 0;
#X connect 13 0 18 0;
#X connect 13 0 20 0;
#X connect 13 0 22 0;
#X connect 13 0 27 0;
#X connect 13 0 28 0;
#X connect 13 0 29 0;
#X connect 13 0 30 0;
#X connect 13 0 32 0;
#X connect 13 0 34 0;
#X connect 14 0 15 0;
#X connect 17 0 14 0;
#X connect 18 0 10 0;
#X connect 19 0 35 0;
#X connect 20 0 19 0;
#X connect 21 0 36 0;
#X connect 22 0 21 0;
#X connect 23 0 38 0;
#X connect 24 0 37 0;
#X connect 25 0 39 0;
#X connect 26 0 40 0;
#X connect 27 0 24 0;
#X connect 28 0 23 0;
#X connect 29 0 25 0;
#X connect 30 0 26 0;
#X connect 31 0 41 0;
#X connect 32 0 31 0;
#X connect 33 0 42 0;
#X connect 34 0 33 0;
