#N canvas 0 33 2296 960 10;
#X declare -lib mrpeach;
#X obj 33 1070 *~;
#X obj 63 1070 *~;
#X obj 33 1099 dac~ 1 2;
#N canvas 0 22 450 278 (subpatch) 0;
#X array channelL 418950 float 2;
#X coords 0 1 418950 -1 200 140 1;
#X restore 33 1137 graph;
#N canvas 0 22 450 278 (subpatch) 0;
#X array channelR 418950 float 2;
#X coords 0 1 418950 -1 200 140 1 0 0;
#X restore 34 1295 graph;
#X obj 1378 556 bng 15 250 50 0 empty empty empty 17 7 0 10 -262144
-1 -1;
#X msg 33 748 read -resize \$1 channelL channelR;
#X obj 33 770 soundfiler;
#X floatatom 49 797 12 0 0 0 - - -;
#X obj 49 823 s sampleSize;
#X floatatom 50 876 12 0 0 0 - - -;
#X obj 33 899 phasor~;
#X obj 33 943 *~;
#X obj 55 923 r sampleSize;
#X obj 33 972 tabread4~ channelL;
#X obj 42 1004 tabread4~ channelR;
#X obj 33 848 expr 44100 / $f1;
#X msg 33 721 open X-bell(120BPM).wav;
#X obj 48 1034 r velocity1;
#X obj 248 1068 *~;
#X obj 278 1068 *~;
#X obj 248 1097 dac~ 1 2;
#N canvas 0 22 450 278 (subpatch) 0;
#X array channelL2 418950 float 2;
#X coords 0 1 418950 -1 200 140 1 0 0;
#X restore 248 1135 graph;
#N canvas 0 22 450 278 (subpatch) 0;
#X array channelR2 418950 float 2;
#X coords 0 1 418950 -1 200 140 1 0 0;
#X restore 249 1293 graph;
#X obj 248 768 soundfiler;
#X floatatom 264 795 12 0 0 0 - - -;
#X floatatom 265 874 12 0 0 0 - - -;
#X obj 248 897 phasor~;
#X obj 248 941 *~;
#X obj 248 846 expr 44100 / $f1;
#X msg 248 719 open X-bell(120BPM).wav;
#X msg 248 746 read -resize \$1 channelL2 channelR2;
#X obj 264 821 s sampleSize2;
#X obj 270 921 r sampleSize2;
#X obj 263 1032 r velocity2;
#X obj 477 1068 *~;
#X obj 507 1068 *~;
#X obj 477 1097 dac~ 1 2;
#N canvas 0 22 450 278 (subpatch) 0;
#X array channelL3 418950 float 2;
#X coords 0 1 418950 -1 200 140 1 0 0;
#X restore 477 1135 graph;
#N canvas 0 22 450 278 (subpatch) 0;
#X array channelR3 418950 float 2;
#X coords 0 1 418950 -1 200 140 1 0 0;
#X restore 478 1293 graph;
#X obj 477 768 soundfiler;
#X floatatom 493 795 12 0 0 0 - - -;
#X floatatom 494 874 12 0 0 0 - - -;
#X obj 477 897 phasor~;
#X obj 477 941 *~;
#X obj 477 846 expr 44100 / $f1;
#X msg 477 719 open X-bell(120BPM).wav;
#X obj 499 921 r sampleSize3;
#X obj 493 821 s sampleSize3;
#X obj 477 970 tabread4~ channelL3;
#X obj 486 1002 tabread4~ channelR3;
#X obj 492 1032 r velocity3;
#X obj 248 970 tabread4~ channelL2;
#X obj 257 1002 tabread4~ channelR2;
#X obj 718 1065 *~;
#X obj 748 1065 *~;
#X obj 718 1094 dac~ 1 2;
#N canvas 0 22 450 278 (subpatch) 0;
#X array channelL4 418950 float 2;
#X coords 0 1 418950 -1 200 140 1 0 0;
#X restore 718 1132 graph;
#N canvas 0 22 450 278 (subpatch) 0;
#X array channelR4 418950 float 2;
#X coords 0 1 418950 -1 200 140 1 0 0;
#X restore 719 1290 graph;
#X obj 718 765 soundfiler;
#X floatatom 734 792 12 0 0 0 - - -;
#X floatatom 735 871 12 0 0 0 - - -;
#X obj 718 894 phasor~;
#X obj 718 938 *~;
#X obj 718 843 expr 44100 / $f1;
#X msg 718 716 open X-bell(120BPM).wav;
#X msg 477 746 read -resize \$1 channelL3 channelR3;
#X msg 718 743 read -resize \$1 channelL4 channelR4;
#X obj 734 818 s sampleSize4;
#X obj 740 918 r sampleSize4;
#X obj 718 967 tabread4~ channelL4;
#X obj 727 999 tabread4~ channelR4;
#X obj 733 1029 r velocity4;
#X obj 943 1063 *~;
#X obj 973 1063 *~;
#X obj 943 1092 dac~ 1 2;
#N canvas 0 22 450 278 (subpatch) 0;
#X array channelL5 418950 float 2;
#X coords 0 1 418950 -1 200 140 1 0 0;
#X restore 943 1130 graph;
#N canvas 0 22 450 278 (subpatch) 0;
#X array channelR5 418950 float 2;
#X coords 0 1 418950 -1 200 140 1 0 0;
#X restore 944 1288 graph;
#X obj 943 763 soundfiler;
#X floatatom 959 790 12 0 0 0 - - -;
#X floatatom 960 869 12 0 0 0 - - -;
#X obj 943 892 phasor~;
#X obj 943 936 *~;
#X obj 943 841 expr 44100 / $f1;
#X msg 943 714 open X-bell(120BPM).wav;
#X msg 943 741 read -resize \$1 channelL5 channelR5;
#X obj 959 816 s sampleSize5;
#X obj 965 916 r sampleSize5;
#X obj 943 965 tabread4~ channelL5;
#X obj 952 997 tabread4~ channelR5;
#X obj 958 1027 r velocity5;
#X obj 1200 1063 *~;
#X obj 1170 1092 dac~ 1 2;
#N canvas 0 22 450 278 (subpatch) 0;
#X array channelL6 418950 float 2;
#X coords 0 1 418950 -1 200 140 1 0 0;
#X restore 1170 1130 graph;
#N canvas 0 22 450 278 (subpatch) 0;
#X array channelR6 418950 float 2;
#X coords 0 1 418950 -1 200 140 1 0 0;
#X restore 1171 1288 graph;
#X obj 1170 763 soundfiler;
#X floatatom 1186 790 12 0 0 0 - - -;
#X floatatom 1187 869 12 0 0 0 - - -;
#X obj 1170 841 expr 44100 / $f1;
#X msg 1170 714 open X-bell(120BPM).wav;
#X msg 1170 741 read -resize \$1 channelL6 channelR6;
#X obj 1186 816 s sampleSize6;
#X obj 1170 893 phasor~;
#X obj 1170 937 *~;
#X obj 1170 1063 *~;
#X obj 1192 916 r sampleSize6;
#X obj 1170 965 tabread4~ channelL6;
#X obj 1179 997 tabread4~ channelR6;
#X obj 1185 1027 r velocity6;
#X obj 1423 1064 *~;
#X obj 1393 1093 dac~ 1 2;
#N canvas 0 22 450 278 (subpatch) 0;
#X array channelL7 418950 float 2;
#X coords 0 1 418950 -1 200 140 1 0 0;
#X restore 1393 1131 graph;
#N canvas 0 22 450 278 (subpatch) 0;
#X array channelR7 418950 float 2;
#X coords 0 1 418950 -1 200 140 1 0 0;
#X restore 1394 1289 graph;
#X obj 1393 764 soundfiler;
#X floatatom 1409 791 12 0 0 0 - - -;
#X floatatom 1410 870 12 0 0 0 - - -;
#X obj 1393 842 expr 44100 / $f1;
#X msg 1393 715 open X-bell(120BPM).wav;
#X obj 1393 894 phasor~;
#X obj 1393 938 *~;
#X obj 1393 1064 *~;
#X msg 1393 742 read -resize \$1 channelL7 channelR7;
#X obj 1409 817 s sampleSize7;
#X obj 1415 917 r sampleSize7;
#X obj 1393 966 tabread4~ channelL7;
#X obj 1402 998 tabread4~ channelR7;
#X obj 1408 1028 r velocity7;
#X obj 1651 1062 *~;
#X obj 1621 1091 dac~ 1 2;
#N canvas 0 22 450 278 (subpatch) 0;
#X array channelL8 418950 float 2;
#X coords 0 1 418950 -1 200 140 1 0 0;
#X restore 1621 1129 graph;
#N canvas 0 22 450 278 (subpatch) 0;
#X array channelR8 418950 float 2;
#X coords 0 1 418950 -1 200 140 1 0 0;
#X restore 1622 1287 graph;
#X obj 1621 762 soundfiler;
#X floatatom 1637 789 12 0 0 0 - - -;
#X floatatom 1638 868 12 0 0 0 - - -;
#X obj 1621 840 expr 44100 / $f1;
#X msg 1621 713 open X-bell(120BPM).wav;
#X obj 1621 892 phasor~;
#X obj 1621 936 *~;
#X obj 1621 1062 *~;
#X msg 1621 740 read -resize \$1 channelL8 channelR8;
#X obj 1637 815 s sampleSize8;
#X obj 1643 915 r sampleSize8;
#X obj 1621 964 tabread4~ channelL8;
#X obj 1630 996 tabread4~ channelR8;
#X obj 1636 1026 r velocity8;
#X obj 1877 1061 *~;
#X obj 1847 1090 dac~ 1 2;
#N canvas 0 22 450 278 (subpatch) 0;
#X array channelL9 418950 float 2;
#X coords 0 1 418950 -1 200 140 1 0 0;
#X restore 1847 1128 graph;
#N canvas 0 22 450 278 (subpatch) 0;
#X array channelR9 418950 float 2;
#X coords 0 1 418950 -1 200 140 1 0 0;
#X restore 1848 1286 graph;
#X obj 1847 761 soundfiler;
#X floatatom 1863 788 12 0 0 0 - - -;
#X floatatom 1864 867 12 0 0 0 - - -;
#X obj 1847 839 expr 44100 / $f1;
#X msg 1847 712 open X-bell(120BPM).wav;
#X obj 1847 891 phasor~;
#X obj 1847 935 *~;
#X obj 1847 1061 *~;
#X msg 1847 739 read -resize \$1 channelL9 channelR9;
#X obj 1863 814 s sampleSize9;
#X obj 1847 963 tabread4~ channelL9;
#X obj 1856 995 tabread4~ channelR;
#X obj 1862 1025 r velocityEMF;
#X obj 2100 1059 *~;
#X obj 2070 1088 dac~ 1 2;
#N canvas 0 22 450 278 (subpatch) 0;
#X array channelL10 418950 float 2;
#X coords 0 1 418950 -1 200 140 1 0 0;
#X restore 2070 1126 graph;
#N canvas 0 22 450 278 (subpatch) 0;
#X array channelR10 418950 float 2;
#X coords 0 1 418950 -1 200 140 1 0 0;
#X restore 2071 1284 graph;
#X obj 2070 759 soundfiler;
#X floatatom 2086 786 12 0 0 0 - - -;
#X floatatom 2087 865 12 0 0 0 - - -;
#X obj 2070 837 expr 44100 / $f1;
#X msg 2070 710 open X-bell(120BPM).wav;
#X obj 2070 889 phasor~;
#X obj 2070 933 *~;
#X obj 2070 1059 *~;
#X msg 2070 737 read -resize \$1 channelL10 channelR10;
#X obj 2086 812 s sampleSize10;
#X obj 1869 914 r sampleSize9;
#X obj 2092 912 r sampleSize10;
#X obj 2070 961 tabread4~ channelL10;
#X obj 2079 993 tabread4~ channel10;
#X obj 2085 1023 r velocityPulse;
#X text 1227 38 Choose a port;
#X text 1223 191 Unpacks the OSC message;
#X text 1222 220 Routes the incoming messages;
#X obj 873 33 import mrpeach;
#X msg 1047 99 open \$1;
#X obj 1074 39 hradio 18 1 0 8 empty empty empty 0 -8 0 10 -262144
-1 -1 0;
#X msg 1184 98 close;
#X obj 1377 524 print;
#X obj 1121 159 mrpeach/slipdec 65536;
#X obj 1121 128 comport 2 57600;
#X floatatom 1056 279 5 0 0 0 - - -;
#X text 1078 21 0 1 2 3 4 5 6 7;
#X obj 1121 190 unpackOSC;
#X obj 1121 220 routeOSC /analog;
#X floatatom 949 278 5 0 0 0 - - -;
#X obj 949 310 s velocity1;
#X obj 1056 311 s velocity2;
#X obj 949 249 routeOSC /wifi1;
#X obj 1056 250 routeOSC /wifi2;
#X floatatom 1160 280 5 0 0 0 - - -;
#X obj 1160 251 routeOSC /wifi3;
#X floatatom 1260 280 5 0 0 0 - - -;
#X obj 1260 251 routeOSC /wifi4;
#X floatatom 1055 363 5 0 0 0 - - -;
#X floatatom 948 362 5 0 0 0 - - -;
#X floatatom 1159 364 5 0 0 0 - - -;
#X floatatom 1259 364 5 0 0 0 - - -;
#X obj 948 333 routeOSC /wifi5;
#X obj 1055 334 routeOSC /wifi6;
#X obj 1159 335 routeOSC /wifi7;
#X obj 1259 335 routeOSC /wifi8;
#X floatatom 948 450 5 0 0 0 - - -;
#X obj 948 421 routeOSC /EMF;
#X floatatom 1056 450 5 0 0 0 - - -;
#X obj 1056 421 routeOSC /Pulse;
#X obj 1160 312 s velocity3;
#X obj 1260 312 s velocity4;
#X obj 948 394 s velocity5;
#X obj 1055 395 s velocity6;
#X obj 1159 396 s velocity7;
#X obj 1259 396 s velocity8;
#X obj 948 482 s velocityEMF;
#X obj 1056 482 s velocityPulse;
#X msg 1182 498 0.105263;
#X obj 1163 525 hsl 128 15 0 1 0 0 empty empty empty -2 -8 0 10 -262144
-1 -1 1337 1;
#X floatatom 1160 550 5 0 0 0 - - -;
#X floatatom 1161 451 5 0 0 0 - - -;
#X obj 1161 422 routeOSC /BPM;
#X connect 0 0 2 0;
#X connect 1 0 2 1;
#X connect 5 0 17 0;
#X connect 5 0 30 0;
#X connect 5 0 46 0;
#X connect 5 0 65 0;
#X connect 5 0 84 0;
#X connect 5 0 99 0;
#X connect 5 0 117 0;
#X connect 5 0 135 0;
#X connect 5 0 153 0;
#X connect 5 0 170 0;
#X connect 6 0 7 0;
#X connect 7 0 8 0;
#X connect 7 0 16 0;
#X connect 8 0 9 0;
#X connect 11 0 12 0;
#X connect 12 0 14 0;
#X connect 12 0 15 0;
#X connect 13 0 12 1;
#X connect 14 0 0 0;
#X connect 15 0 1 0;
#X connect 16 0 10 0;
#X connect 16 0 11 0;
#X connect 17 0 6 0;
#X connect 18 0 0 1;
#X connect 18 0 1 1;
#X connect 19 0 21 0;
#X connect 20 0 21 1;
#X connect 24 0 25 0;
#X connect 24 0 29 0;
#X connect 25 0 32 0;
#X connect 27 0 28 0;
#X connect 28 0 52 0;
#X connect 28 0 53 0;
#X connect 29 0 26 0;
#X connect 29 0 27 0;
#X connect 30 0 31 0;
#X connect 31 0 24 0;
#X connect 33 0 28 1;
#X connect 34 0 19 1;
#X connect 34 0 20 1;
#X connect 35 0 37 0;
#X connect 36 0 37 1;
#X connect 40 0 41 0;
#X connect 40 0 45 0;
#X connect 41 0 48 0;
#X connect 43 0 44 0;
#X connect 44 0 49 0;
#X connect 44 0 50 0;
#X connect 45 0 42 0;
#X connect 45 0 43 0;
#X connect 46 0 66 0;
#X connect 47 0 44 1;
#X connect 49 0 35 0;
#X connect 50 0 36 0;
#X connect 51 0 35 1;
#X connect 51 0 36 1;
#X connect 52 0 19 0;
#X connect 53 0 20 0;
#X connect 54 0 56 0;
#X connect 55 0 56 1;
#X connect 59 0 60 0;
#X connect 59 0 64 0;
#X connect 60 0 68 0;
#X connect 62 0 63 0;
#X connect 63 0 70 0;
#X connect 63 0 71 0;
#X connect 64 0 61 0;
#X connect 64 0 62 0;
#X connect 65 0 67 0;
#X connect 66 0 40 0;
#X connect 67 0 59 0;
#X connect 69 0 63 1;
#X connect 70 0 54 0;
#X connect 71 0 55 0;
#X connect 72 0 54 1;
#X connect 72 0 55 1;
#X connect 73 0 75 0;
#X connect 74 0 75 1;
#X connect 78 0 79 0;
#X connect 78 0 83 0;
#X connect 79 0 86 0;
#X connect 81 0 82 0;
#X connect 82 0 88 0;
#X connect 82 0 89 0;
#X connect 83 0 80 0;
#X connect 83 0 81 0;
#X connect 84 0 85 0;
#X connect 85 0 78 0;
#X connect 87 0 82 1;
#X connect 88 0 73 0;
#X connect 89 0 74 0;
#X connect 90 0 73 1;
#X connect 90 0 74 1;
#X connect 91 0 92 1;
#X connect 95 0 96 0;
#X connect 95 0 98 0;
#X connect 96 0 101 0;
#X connect 98 0 97 0;
#X connect 98 0 102 0;
#X connect 99 0 100 0;
#X connect 100 0 95 0;
#X connect 102 0 103 0;
#X connect 103 0 106 0;
#X connect 103 0 107 0;
#X connect 104 0 92 0;
#X connect 105 0 103 1;
#X connect 106 0 104 0;
#X connect 107 0 91 0;
#X connect 108 0 91 1;
#X connect 108 0 104 1;
#X connect 109 0 110 1;
#X connect 113 0 114 0;
#X connect 113 0 116 0;
#X connect 114 0 122 0;
#X connect 116 0 115 0;
#X connect 116 0 118 0;
#X connect 117 0 121 0;
#X connect 118 0 119 0;
#X connect 119 0 124 0;
#X connect 119 0 125 0;
#X connect 120 0 110 0;
#X connect 121 0 113 0;
#X connect 123 0 119 1;
#X connect 124 0 120 0;
#X connect 125 0 109 0;
#X connect 126 0 109 1;
#X connect 126 0 120 1;
#X connect 127 0 128 1;
#X connect 131 0 132 0;
#X connect 131 0 134 0;
#X connect 132 0 140 0;
#X connect 134 0 133 0;
#X connect 134 0 136 0;
#X connect 135 0 139 0;
#X connect 136 0 137 0;
#X connect 137 0 142 0;
#X connect 137 0 143 0;
#X connect 138 0 128 0;
#X connect 139 0 131 0;
#X connect 141 0 137 1;
#X connect 142 0 138 0;
#X connect 143 0 127 0;
#X connect 144 0 127 1;
#X connect 144 0 138 1;
#X connect 145 0 146 1;
#X connect 149 0 150 0;
#X connect 149 0 152 0;
#X connect 150 0 158 0;
#X connect 152 0 151 0;
#X connect 152 0 154 0;
#X connect 153 0 157 0;
#X connect 154 0 155 0;
#X connect 155 0 159 0;
#X connect 155 0 160 0;
#X connect 156 0 146 0;
#X connect 157 0 149 0;
#X connect 159 0 156 0;
#X connect 160 0 145 0;
#X connect 161 0 145 1;
#X connect 161 0 156 1;
#X connect 162 0 163 1;
#X connect 166 0 167 0;
#X connect 166 0 169 0;
#X connect 167 0 175 0;
#X connect 169 0 168 0;
#X connect 169 0 171 0;
#X connect 170 0 174 0;
#X connect 171 0 172 0;
#X connect 172 0 178 0;
#X connect 172 0 179 0;
#X connect 173 0 163 0;
#X connect 174 0 166 0;
#X connect 176 0 155 1;
#X connect 177 0 172 1;
#X connect 178 0 173 0;
#X connect 179 0 162 0;
#X connect 180 0 162 1;
#X connect 180 0 173 1;
#X connect 185 0 190 0;
#X connect 186 0 185 0;
#X connect 187 0 190 0;
#X connect 189 0 193 0;
#X connect 190 0 189 0;
#X connect 191 0 197 0;
#X connect 193 0 188 0;
#X connect 193 0 194 0;
#X connect 194 0 198 0;
#X connect 194 0 199 0;
#X connect 194 0 201 0;
#X connect 194 0 203 0;
#X connect 194 0 208 0;
#X connect 194 0 209 0;
#X connect 194 0 210 0;
#X connect 194 0 211 0;
#X connect 194 0 213 0;
#X connect 194 0 215 0;
#X connect 194 0 228 0;
#X connect 195 0 196 0;
#X connect 198 0 195 0;
#X connect 199 0 191 0;
#X connect 200 0 216 0;
#X connect 201 0 200 0;
#X connect 202 0 217 0;
#X connect 203 0 202 0;
#X connect 204 0 219 0;
#X connect 205 0 218 0;
#X connect 206 0 220 0;
#X connect 207 0 221 0;
#X connect 208 0 205 0;
#X connect 209 0 204 0;
#X connect 210 0 206 0;
#X connect 211 0 207 0;
#X connect 212 0 222 0;
#X connect 213 0 212 0;
#X connect 214 0 223 0;
#X connect 215 0 214 0;
#X connect 224 0 225 0;
#X connect 225 0 226 0;
#X connect 226 0 11 0;
#X connect 226 0 27 0;
#X connect 226 0 43 0;
#X connect 226 0 62 0;
#X connect 226 0 81 0;
#X connect 226 0 102 0;
#X connect 226 0 118 0;
#X connect 226 0 136 0;
#X connect 226 0 154 0;
#X connect 226 0 171 0;
#X connect 227 0 225 0;
#X connect 228 0 227 0;
