#N canvas 712 28 527 752 10;
#X obj 345 539 dac~;
#X obj 349 489 osc~ 440;
#X obj 349 436 mtof;
#X obj 337 340 tabread sticky;
#X floatatom 338 369 5 0 0 0 - - -;
#X obj 339 402 + 48;
#X floatatom 274 428 5 0 0 0 - - -;
#X floatatom 275 473 5 0 0 0 - - -;
#X obj 146 342 f;
#X obj 183 341 + 1;
#X floatatom 153 373 5 0 0 0 - - -;
#X floatatom 148 446 5 0 0 0 - - -;
#X obj 144 308 metro 100;
#X msg 179 274 stop;
#X obj 25 -12 table sticky 12;
#X msg 28 21 \; sticky 0 1 2 3 5 7 8 10 12;
#X obj 149 410 % 12;
#X obj 134 260 bng 15 250 50 0 empty empty empty 17 7 0 10 -262144
-1 -1;
#X obj 144 207 moses 50;
#X floatatom 208 233 5 0 0 0 - - -;
#X floatatom 92 241 5 0 0 0 - - -;
#X floatatom 150 167 5 0 0 0 - - -;
#X msg 210 166 75;
#X connect 1 0 0 0;
#X connect 1 0 0 1;
#X connect 2 0 1 0;
#X connect 2 0 7 0;
#X connect 3 0 4 0;
#X connect 4 0 5 0;
#X connect 5 0 2 0;
#X connect 5 0 6 0;
#X connect 8 0 9 0;
#X connect 8 0 10 0;
#X connect 9 0 8 1;
#X connect 10 0 16 0;
#X connect 11 0 3 0;
#X connect 12 0 8 0;
#X connect 13 0 12 0;
#X connect 16 0 11 0;
#X connect 17 0 12 0;
#X connect 18 0 17 0;
#X connect 18 0 20 0;
#X connect 18 1 13 0;
#X connect 18 1 19 0;
#X connect 21 0 18 0;
#X connect 22 0 18 1;
