#N canvas 0 22 571 665 10;
#X obj 130 361 metro;
#X obj 179 268 /;
#X obj 126 192 t b b b;
#X msg 182 227 60000;
#X obj 124 153 bng 15 250 50 0 empty empty empty 17 7 0 10 -262144
-1 -1;
#X floatatom 239 225 5 0 0 0 - - -;
#X floatatom 262 312 5 0 0 0 - - -;
#X obj 179 309 i;
#X floatatom 263 354 5 0 0 0 - - -;
#X msg 73 151 0;
#X msg 248 177 60;
#X obj 228 127 loadbang;
#X obj 122 397 i;
#X floatatom 71 396 5 0 0 0 - - -;
#X obj 159 397 + 1;
#X floatatom 122 425 5 0 0 0 - - -;
#X obj 122 451 % 8;
#X floatatom 122 480 5 0 0 0 - - -;
#X msg 174 359 0;
#X connect 0 0 12 0;
#X connect 0 0 13 0;
#X connect 1 0 6 0;
#X connect 1 0 7 0;
#X connect 2 0 0 0;
#X connect 2 1 3 0;
#X connect 2 2 5 0;
#X connect 3 0 1 0;
#X connect 4 0 2 0;
#X connect 5 0 1 1;
#X connect 7 0 8 0;
#X connect 7 0 0 1;
#X connect 9 0 0 0;
#X connect 10 0 5 0;
#X connect 11 0 10 0;
#X connect 12 0 14 0;
#X connect 12 0 15 0;
#X connect 14 0 12 1;
#X connect 15 0 16 0;
#X connect 16 0 17 0;
#X connect 18 0 12 1;
