#N canvas 348 22 536 744 10;
#X obj 33 547 *~;
#X obj 63 547 *~;
#X obj 138 633 dac~ 1 2;
#X obj 34 33 bng 15 250 50 0 empty empty empty 17 7 0 10 -262144 -1
-1;
#X msg 34 81 read -resize \$1 channelL channelR;
#X obj 34 103 soundfiler;
#X floatatom 50 130 12 0 0 0 - - -;
#X obj 50 156 s sampleSize;
#X floatatom 51 209 12 0 0 0 - - -;
#X obj 34 364 phasor~;
#X obj 34 408 *~;
#X obj 56 388 r sampleSize;
#X obj 33 449 tabread4~ channelL;
#X obj 42 481 tabread4~ channelR;
#X obj 74 509 hsl 128 15 0 6 0 0 empty empty empty -2 -8 0 10 -262144
-1 -1 1000 1;
#X obj 34 181 expr 44100 / $f1;
#X obj 54 258 hsl 128 15 -1 1 0 0 empty empty empty -2 -8 0 10 -262144
-1 -1 7018 1;
#X floatatom 51 278 5 0 0 0 - - -;
#X msg 51 235 0.105263;
#X msg 73 339 0;
#X msg 123 347 0.5;
#X msg 73 311 0;
#X msg 34 58 open Space-Arp(120BPM).wav;
#X obj 260 543 *~;
#X obj 290 543 *~;
#X obj 261 29 bng 15 250 50 0 empty empty empty 17 7 0 10 -262144 -1
-1;
#X obj 261 99 soundfiler;
#X floatatom 277 126 12 0 0 0 - - -;
#X floatatom 278 205 12 0 0 0 - - -;
#X obj 261 360 phasor~;
#X obj 261 404 *~;
#X obj 260 445 tabread4~ channelL;
#X obj 269 477 tabread4~ channelR;
#X obj 301 505 hsl 128 15 0 6 0 0 empty empty empty -2 -8 0 10 -262144
-1 -1 1200 1;
#X obj 281 254 hsl 128 15 -1 1 0 0 empty empty empty -2 -8 0 10 -262144
-1 -1 7018 1;
#X floatatom 278 274 5 0 0 0 - - -;
#X msg 278 231 0.105263;
#X msg 300 335 0;
#X msg 350 343 0.5;
#X msg 300 307 0;
#X msg 261 54 open X-Bell(120BPM).wav;
#X msg 261 77 read -resize \$1 channelL channelR;
#X obj 261 177 expr 44100 / $f1;
#X obj 277 152 s sampleSize2;
#X obj 283 384 r sampleSize2;
#X connect 0 0 2 0;
#X connect 1 0 2 1;
#X connect 3 0 22 0;
#X connect 3 0 40 0;
#X connect 4 0 5 0;
#X connect 5 0 6 0;
#X connect 5 0 15 0;
#X connect 6 0 7 0;
#X connect 9 0 10 0;
#X connect 10 0 12 0;
#X connect 10 0 13 0;
#X connect 11 0 10 1;
#X connect 12 0 0 0;
#X connect 13 0 1 0;
#X connect 14 0 0 1;
#X connect 14 0 1 1;
#X connect 15 0 8 0;
#X connect 15 0 9 0;
#X connect 16 0 17 0;
#X connect 17 0 9 0;
#X connect 18 0 16 0;
#X connect 19 0 9 1;
#X connect 20 0 9 1;
#X connect 21 0 9 0;
#X connect 22 0 4 0;
#X connect 23 0 2 0;
#X connect 24 0 2 1;
#X connect 25 0 40 0;
#X connect 26 0 27 0;
#X connect 26 0 42 0;
#X connect 27 0 43 0;
#X connect 29 0 30 0;
#X connect 30 0 31 0;
#X connect 30 0 32 0;
#X connect 31 0 23 0;
#X connect 32 0 24 0;
#X connect 33 0 23 1;
#X connect 33 0 24 1;
#X connect 34 0 35 0;
#X connect 35 0 29 0;
#X connect 36 0 34 0;
#X connect 37 0 29 1;
#X connect 38 0 29 1;
#X connect 39 0 29 0;
#X connect 40 0 41 0;
#X connect 41 0 26 0;
#X connect 42 0 28 0;
#X connect 42 0 29 0;
#X connect 44 0 30 1;
