#N canvas 705 22 536 744 10;
#X obj 32 689 *~;
#X obj 62 689 *~;
#X obj 32 718 dac~ 1 2;
#N canvas 0 22 450 278 (subpatch) 0;
#X array channelL 418950 float 2;
#X coords 0 1 418950 -1 200 140 1;
#X restore 279 45 graph;
#N canvas 0 22 450 278 (subpatch) 0;
#X array channelR 418950 float 2;
#X coords 0 1 418950 -1 200 140 1 0 0;
#X restore 279 207 graph;
#X obj 34 33 bng 15 250 50 0 empty empty empty 17 7 0 10 -262144 -1
-1;
#X obj 34 57 openpanel;
#X msg 34 81 read -resize \$1 channelL channelR;
#X obj 34 103 soundfiler;
#X floatatom 50 130 12 0 0 0 - - -;
#X obj 50 156 s sampleSize;
#X floatatom 51 209 12 0 0 0 - - -;
#X obj 34 364 phasor~;
#X obj 34 408 *~;
#X obj 56 388 r sampleSize;
#X obj 32 591 tabread4~ channelL;
#X obj 41 623 tabread4~ channelR;
#X obj 73 651 hsl 128 15 0 6 0 0 empty empty empty -2 -8 0 10 -262144
-1 -1 0 1;
#X obj 34 181 expr 44100 / $f1;
#X obj 99 455 snapshot~;
#X obj 98 432 metro 50;
#X floatatom 99 480 5 0 0 0 - - -;
#X obj 99 506 /;
#X obj 143 479 r sampleSize;
#X floatatom 99 532 5 0 0 0 - - -;
#X obj 282 354 hsl 195 15 0 1 0 0 empty empty empty -2 -8 0 10 -262144
-1 -1 0 1;
#X obj 97 410 tgl 15 0 empty empty empty 17 7 0 10 -262144 -1 -1 0
1;
#X obj 54 258 hsl 128 15 -1 1 0 0 empty empty empty -2 -8 0 10 -262144
-1 -1 0 1;
#X floatatom 51 278 5 0 0 0 - - -;
#X msg 51 235 0.105263;
#X msg 73 339 0;
#X msg 123 347 0.5;
#X msg 73 311 0;
#X connect 0 0 2 0;
#X connect 1 0 2 1;
#X connect 5 0 6 0;
#X connect 6 0 7 0;
#X connect 7 0 8 0;
#X connect 8 0 9 0;
#X connect 8 0 18 0;
#X connect 9 0 10 0;
#X connect 12 0 13 0;
#X connect 13 0 15 0;
#X connect 13 0 16 0;
#X connect 13 0 19 0;
#X connect 14 0 13 1;
#X connect 15 0 0 0;
#X connect 16 0 1 0;
#X connect 17 0 0 1;
#X connect 17 0 1 1;
#X connect 18 0 11 0;
#X connect 18 0 12 0;
#X connect 19 0 21 0;
#X connect 20 0 19 0;
#X connect 21 0 22 0;
#X connect 22 0 24 0;
#X connect 23 0 22 1;
#X connect 24 0 25 0;
#X connect 27 0 28 0;
#X connect 28 0 12 0;
#X connect 29 0 27 0;
#X connect 30 0 12 1;
#X connect 31 0 12 1;
#X connect 32 0 12 0;
