#N canvas 17 40 1280 700 10;
#X obj 1134 348 bng 15 250 50 0 empty empty empty 17 7 0 10 -262144
-1 -1;
#X obj 939 448 readsf~;
#X obj 1025 663 dac~;
#X obj 1017 484 readsf~;
#X obj 1092 519 readsf~;
#X obj 1114 590 readsf~;
#X obj 769 278 bng 15 250 50 0 empty empty empty 17 7 0 10 -262144
-1 -1;
#X obj 608 451 readsf~;
#X obj 694 666 dac~;
#X obj 686 487 readsf~;
#X obj 761 522 readsf~;
#X obj 783 593 readsf~;
#X obj 439 296 bng 15 250 50 0 empty empty empty 17 7 0 10 -262144
-1 -1;
#X obj 239 399 readsf~;
#X obj 325 614 dac~;
#X obj 317 435 readsf~;
#X obj 392 470 readsf~;
#X obj 414 541 readsf~;
#X obj 135 375 bng 15 250 50 0 empty empty empty 17 7 0 10 -262144
-1 -1;
#X obj -65 478 readsf~;
#X obj 21 693 dac~;
#X obj 13 514 readsf~;
#X msg -65 440 open Music-Box(120BPM).wav \, 1;
#X msg 110 584 open Space-Arp(120BPM).wav \, 1;
#X msg 89 517 open X-Bell(120BPM).wav \, 1;
#X obj 88 549 readsf~;
#X obj 110 620 readsf~;
#X msg 13 478 open Slow-Sweep(120BPM).wav \, 1;
#X msg 239 361 open Music-Box(130BPM).wav \, 1;
#X msg 317 399 open Slow-Sweep(130BPM).wav \, 1;
#X msg 393 438 open X-Bell(130BPM).wav \, 1;
#X msg 414 505 open Space-Arp(130BPM).wav \, 1;
#X msg 608 413 open Music-Box(140BPM).wav \, 1;
#X msg 686 451 open Slow-Sweep(140BPM).wav \, 1;
#X msg 762 490 open X-Bell(140BPM).wav \, 1;
#X msg 783 557 open Space-Arp(140BPM).wav \, 1;
#X msg 939 410 open Music-Box(150BPM).wav \, 1;
#X msg 1017 448 open Slow-Sweep(150BPM).wav \, 1;
#X msg 1093 487 open X-Bell(150BPM).wav \, 1;
#X msg 1114 554 open Space-Arp(150BPM).wav \, 1;
#X floatatom 614 47 5 0 0 0 - - -;
#X obj 135 318 &&;
#X obj 118 262 > 0;
#X obj 150 262 <= 10;
#X obj 453 194 <= 20;
#X floatatom 107 290 5 0 0 0 - - -;
#X floatatom 150 290 5 0 0 0 - - -;
#X obj 439 249 &&;
#X floatatom 411 221 5 0 0 0 - - -;
#X floatatom 454 221 5 0 0 0 - - -;
#X obj 767 203 &&;
#X floatatom 739 175 5 0 0 0 - - -;
#X floatatom 782 175 5 0 0 0 - - -;
#X obj 1134 265 &&;
#X floatatom 1106 237 5 0 0 0 - - -;
#X floatatom 1149 237 5 0 0 0 - - -;
#X obj 744 148 > 20;
#X obj 781 148 <= 30;
#X obj 1111 210 > 30;
#X obj 1148 210 <= 40;
#X obj 416 194 > 10;
#X obj 135 347 spigot;
#X obj 439 272 spigot;
#X obj 769 242 spigot;
#X obj 1134 311 spigot;
#X msg 174 370 stop;
#X msg 501 348 stop;
#X connect 0 0 36 0;
#X connect 0 0 38 0;
#X connect 0 0 39 0;
#X connect 0 0 37 0;
#X connect 1 0 2 0;
#X connect 3 0 2 0;
#X connect 4 0 2 0;
#X connect 5 0 2 0;
#X connect 6 0 32 0;
#X connect 6 0 34 0;
#X connect 6 0 35 0;
#X connect 6 0 33 0;
#X connect 7 0 8 0;
#X connect 9 0 8 0;
#X connect 10 0 8 0;
#X connect 11 0 8 0;
#X connect 12 0 28 0;
#X connect 12 0 30 0;
#X connect 12 0 31 0;
#X connect 12 0 29 0;
#X connect 13 0 14 0;
#X connect 15 0 14 0;
#X connect 16 0 14 0;
#X connect 17 0 14 0;
#X connect 18 0 22 0;
#X connect 18 0 24 0;
#X connect 18 0 27 0;
#X connect 18 0 23 0;
#X connect 19 0 20 0;
#X connect 21 0 20 0;
#X connect 22 0 19 0;
#X connect 23 0 26 0;
#X connect 24 0 25 0;
#X connect 25 0 20 0;
#X connect 26 0 20 0;
#X connect 27 0 21 0;
#X connect 28 0 13 0;
#X connect 29 0 15 0;
#X connect 30 0 16 0;
#X connect 31 0 17 0;
#X connect 32 0 7 0;
#X connect 33 0 9 0;
#X connect 34 0 10 0;
#X connect 35 0 11 0;
#X connect 36 0 1 0;
#X connect 37 0 3 0;
#X connect 38 0 4 0;
#X connect 39 0 5 0;
#X connect 40 0 42 0;
#X connect 40 0 44 0;
#X connect 40 0 43 0;
#X connect 40 0 56 0;
#X connect 40 0 57 0;
#X connect 40 0 58 0;
#X connect 40 0 59 0;
#X connect 40 0 60 0;
#X connect 41 0 61 0;
#X connect 41 0 61 1;
#X connect 42 0 45 0;
#X connect 43 0 46 0;
#X connect 44 0 49 0;
#X connect 45 0 41 0;
#X connect 46 0 41 1;
#X connect 47 0 62 0;
#X connect 47 0 62 1;
#X connect 48 0 47 0;
#X connect 49 0 47 1;
#X connect 50 0 63 0;
#X connect 50 0 63 1;
#X connect 51 0 50 0;
#X connect 52 0 50 1;
#X connect 53 0 64 0;
#X connect 53 0 64 1;
#X connect 54 0 53 0;
#X connect 55 0 53 1;
#X connect 56 0 51 0;
#X connect 57 0 52 0;
#X connect 58 0 54 0;
#X connect 59 0 55 0;
#X connect 60 0 48 0;
#X connect 61 0 18 0;
#X connect 61 0 66 0;
#X connect 62 0 12 0;
#X connect 62 0 65 0;
#X connect 63 0 6 0;
#X connect 64 0 0 0;
#X connect 65 0 19 0;
#X connect 65 0 21 0;
#X connect 65 0 25 0;
#X connect 65 0 26 0;
#X connect 66 0 13 0;
#X connect 66 0 15 0;
#X connect 66 0 16 0;
#X connect 66 0 17 0;
