#N canvas 466 22 916 745 10;
#X obj 30 590 *~;
#X obj 60 590 *~;
#X obj 393 692 dac~ 1 2;
#X obj 334 67 bng 15 250 50 0 empty empty empty 17 7 0 10 -262144 -1
-1;
#X msg 30 202 read -resize \$1 channelL channelR;
#X obj 30 224 soundfiler;
#X floatatom 46 251 12 0 0 0 - - -;
#X floatatom 47 330 12 0 0 0 - - -;
#X obj 30 433 phasor~;
#X obj 30 460 *~;
#X obj 30 492 tabread4~ channelL;
#X obj 39 524 tabread4~ channelR;
#X obj 71 553 hsl 128 15 0 6 0 0 empty empty empty -2 -8 0 10 -262144
-1 -1 0 1;
#X obj 30 302 expr 44100 / $f1;
#X obj 50 379 hsl 128 15 -1 1 0 0 empty empty empty -2 -8 0 10 -262144
-1 -1 7018 1;
#X floatatom 47 399 5 0 0 0 - - -;
#X msg 47 356 0.105263;
#X msg 30 178 open Slow-Sweep(120BPM).wav;
#X obj 255 586 *~;
#X obj 285 586 *~;
#X obj 255 220 soundfiler;
#X floatatom 272 326 12 0 0 0 - - -;
#X obj 255 429 phasor~;
#X obj 255 456 *~;
#X obj 255 488 tabread4~ channelL;
#X obj 264 520 tabread4~ channelR;
#X obj 296 549 hsl 128 15 0 6 0 0 empty empty empty -2 -8 0 10 -262144
-1 -1 1600 1;
#X msg 255 174 open X-Bell(120BPM).wav;
#X obj 481 583 *~;
#X obj 511 583 *~;
#X obj 481 217 soundfiler;
#X floatatom 497 244 12 0 0 0 - - -;
#X floatatom 498 323 12 0 0 0 - - -;
#X obj 481 426 phasor~;
#X obj 481 453 *~;
#X obj 481 485 tabread4~ channelL;
#X obj 490 517 tabread4~ channelR;
#X obj 522 546 hsl 128 15 0 6 0 0 empty empty empty -2 -8 0 10 -262144
-1 -1 2100 1;
#X msg 481 171 open Space-Arp(120BPM).wav;
#X obj 703 580 *~;
#X obj 733 580 *~;
#X obj 703 214 soundfiler;
#X floatatom 719 241 12 0 0 0 - - -;
#X floatatom 720 320 12 0 0 0 - - -;
#X obj 703 423 phasor~;
#X obj 703 450 *~;
#X obj 703 482 tabread4~ channelL;
#X obj 712 514 tabread4~ channelR;
#X obj 744 543 hsl 128 15 0 6 0 0 empty empty empty -2 -8 0 10 -262144
-1 -1 1800 1;
#X msg 703 168 open Music-Box(120BPM).wav;
#X msg 703 192 read -resize \$4 channelL channelR;
#X obj 46 277 s sampleSize1;
#X obj 271 273 s sampleSize2;
#X obj 497 270 s sampleSize3;
#X obj 719 267 s sampleSize4;
#X obj 255 298 expr 44100 / $f2;
#X obj 481 295 expr 44100 / $f3;
#X obj 703 292 expr 44100 / $f4;
#X obj 83 433 r sampleSize1;
#X obj 308 429 r sampleSize2;
#X obj 534 426 r sampleSize3;
#X obj 756 423 r sampleSize4;
#X floatatom 273 246 5 0 0 0 - - -;
#X msg 255 198 readsf -resize \$2 channelL channelR;
#X msg 481 195 readsf~ size \$3 channelL channelR;
#X connect 0 0 2 0;
#X connect 1 0 2 1;
#X connect 3 0 17 0;
#X connect 3 0 27 0;
#X connect 3 0 38 0;
#X connect 3 0 49 0;
#X connect 4 0 5 0;
#X connect 5 0 6 0;
#X connect 5 0 13 0;
#X connect 6 0 51 0;
#X connect 8 0 9 0;
#X connect 9 0 10 0;
#X connect 9 0 11 0;
#X connect 10 0 0 0;
#X connect 11 0 1 0;
#X connect 12 0 0 1;
#X connect 12 0 1 1;
#X connect 13 0 7 0;
#X connect 13 0 8 0;
#X connect 14 0 15 0;
#X connect 15 0 8 0;
#X connect 15 0 22 1;
#X connect 15 0 33 1;
#X connect 15 0 44 1;
#X connect 16 0 14 0;
#X connect 17 0 4 0;
#X connect 18 0 2 0;
#X connect 19 0 2 1;
#X connect 20 0 55 0;
#X connect 22 0 23 0;
#X connect 23 0 24 0;
#X connect 23 0 25 0;
#X connect 24 0 18 0;
#X connect 25 0 19 0;
#X connect 26 0 18 1;
#X connect 26 0 19 1;
#X connect 27 0 63 0;
#X connect 28 0 2 0;
#X connect 29 0 2 1;
#X connect 30 0 31 0;
#X connect 30 0 56 0;
#X connect 31 0 53 0;
#X connect 33 0 34 0;
#X connect 34 0 35 0;
#X connect 34 0 36 0;
#X connect 35 0 28 0;
#X connect 36 0 29 0;
#X connect 37 0 28 1;
#X connect 37 0 29 1;
#X connect 38 0 64 0;
#X connect 39 0 2 0;
#X connect 40 0 2 1;
#X connect 41 0 42 0;
#X connect 41 0 57 0;
#X connect 42 0 54 0;
#X connect 44 0 45 0;
#X connect 45 0 46 0;
#X connect 45 0 47 0;
#X connect 46 0 39 0;
#X connect 47 0 40 0;
#X connect 48 0 39 1;
#X connect 48 0 40 1;
#X connect 49 0 50 0;
#X connect 50 0 41 0;
#X connect 55 0 21 0;
#X connect 55 0 22 0;
#X connect 56 0 32 0;
#X connect 56 0 33 0;
#X connect 57 0 43 0;
#X connect 57 0 44 0;
#X connect 58 0 9 1;
#X connect 59 0 23 1;
#X connect 60 0 34 1;
#X connect 61 0 45 1;
#X connect 63 0 20 0;
#X connect 64 0 30 0;
