#N canvas 65 107 1823 818 10;
#X obj 1359 347 bng 15 250 50 0 empty empty empty 17 7 0 10 -262144
-1 -1;
#X obj 1164 447 readsf~;
#X obj 1250 662 dac~;
#X obj 1242 483 readsf~;
#X obj 1317 518 readsf~;
#X obj 1339 589 readsf~;
#X obj 952 348 bng 15 250 50 0 empty empty empty 17 7 0 10 -262144
-1 -1;
#X obj 752 451 readsf~;
#X obj 838 666 dac~;
#X obj 830 487 readsf~;
#X obj 905 522 readsf~;
#X obj 927 593 readsf~;
#X obj 535 363 bng 15 250 50 0 empty empty empty 17 7 0 10 -262144
-1 -1;
#X obj 335 466 readsf~;
#X obj 421 681 dac~;
#X obj 413 502 readsf~;
#X obj 488 537 readsf~;
#X obj 510 608 readsf~;
#X obj 135 375 bng 15 250 50 0 empty empty empty 17 7 0 10 -262144
-1 -1;
#X obj -65 478 readsf~;
#X obj 21 693 dac~;
#X obj 13 514 readsf~;
#X msg -65 440 open Music-Box(120BPM).wav \, 1;
#X msg 110 584 open Space-Arp(120BPM).wav \, 1;
#X msg 89 517 open X-Bell(120BPM).wav \, 1;
#X obj 88 549 readsf~;
#X obj 110 620 readsf~;
#X msg 13 478 open Slow-Sweep(120BPM).wav \, 1;
#X msg 335 428 open Music-Box(130BPM).wav \, 1;
#X msg 413 466 open Slow-Sweep(130BPM).wav \, 1;
#X msg 489 505 open X-Bell(130BPM).wav \, 1;
#X msg 510 572 open Space-Arp(130BPM).wav \, 1;
#X msg 752 413 open Music-Box(140BPM).wav \, 1;
#X msg 830 451 open Slow-Sweep(140BPM).wav \, 1;
#X msg 906 490 open X-Bell(140BPM).wav \, 1;
#X msg 927 557 open Space-Arp(140BPM).wav \, 1;
#X msg 1164 409 open Music-Box(150BPM).wav \, 1;
#X msg 1242 447 open Slow-Sweep(150BPM).wav \, 1;
#X msg 1318 486 open X-Bell(150BPM).wav \, 1;
#X msg 1339 553 open Space-Arp(150BPM).wav \, 1;
#X floatatom 387 234 5 0 0 0 - - -;
#X floatatom 556 228 5 0 0 0 - - -;
#X floatatom 913 249 5 0 0 0 - - -;
#X floatatom 1358 259 5 0 0 0 - - -;
#X obj 1358 211 > 30;
#X floatatom 724 182 5 0 0 0 - - -;
#X obj 387 186 < 10;
#X obj 531 190 > 10 && < 20;
#X obj 913 201 > 20 && < 30;
#X obj -42 56 expr;
#X floatatom 301 77 5 0 0 0 - - -;
#X floatatom 442 -34 5 0 0 0 - - -;
#X obj 444 9 expr $f1 \; if ($f1 > 0 \, 1 \, 0) \; if ($f1 <= 0 &&
$f1 >= 100 \, 1 \, 0) \; if ($f1 > 100 \, 1 \, 0);
#X floatatom 483 125 5 0 0 0 - - -;
#X floatatom 611 133 5 0 0 0 - - -;
#X floatatom 741 112 5 0 0 0 - - -;
#X connect 0 0 36 0;
#X connect 0 0 38 0;
#X connect 0 0 39 0;
#X connect 0 0 37 0;
#X connect 1 0 2 0;
#X connect 3 0 2 0;
#X connect 4 0 2 0;
#X connect 5 0 2 0;
#X connect 6 0 32 0;
#X connect 6 0 34 0;
#X connect 6 0 35 0;
#X connect 6 0 33 0;
#X connect 7 0 8 0;
#X connect 9 0 8 0;
#X connect 10 0 8 0;
#X connect 11 0 8 0;
#X connect 12 0 28 0;
#X connect 12 0 30 0;
#X connect 12 0 31 0;
#X connect 12 0 29 0;
#X connect 13 0 14 0;
#X connect 15 0 14 0;
#X connect 16 0 14 0;
#X connect 17 0 14 0;
#X connect 18 0 22 0;
#X connect 18 0 24 0;
#X connect 18 0 27 0;
#X connect 18 0 23 0;
#X connect 19 0 20 0;
#X connect 21 0 20 0;
#X connect 22 0 19 0;
#X connect 23 0 26 0;
#X connect 24 0 25 0;
#X connect 25 0 20 0;
#X connect 26 0 20 0;
#X connect 27 0 21 0;
#X connect 28 0 13 0;
#X connect 29 0 15 0;
#X connect 30 0 16 0;
#X connect 31 0 17 0;
#X connect 32 0 7 0;
#X connect 33 0 9 0;
#X connect 34 0 10 0;
#X connect 35 0 11 0;
#X connect 36 0 1 0;
#X connect 37 0 3 0;
#X connect 38 0 4 0;
#X connect 39 0 5 0;
#X connect 42 0 6 0;
#X connect 43 0 0 0;
#X connect 44 0 43 0;
#X connect 46 0 40 0;
#X connect 46 0 18 0;
#X connect 47 0 41 0;
#X connect 47 0 12 0;
#X connect 48 0 42 0;
#X connect 51 0 52 0;
#X connect 52 0 50 0;
#X connect 52 1 18 0;
#X connect 52 1 53 0;
#X connect 52 2 12 0;
#X connect 52 2 54 0;
#X connect 52 3 6 0;
#X connect 52 3 55 0;
