#N canvas 73 49 1280 700 10;
#X obj 1134 348 bng 15 250 50 0 empty empty empty 17 7 0 10 -262144
-1 -1;
#X obj 939 448 readsf~;
#X obj 1025 663 dac~;
#X obj 1017 484 readsf~;
#X obj 1092 519 readsf~;
#X obj 1114 590 readsf~;
#X obj 768 249 bng 15 250 50 0 empty empty empty 17 7 0 10 -262144
-1 -1;
#X obj 568 352 readsf~;
#X obj 654 567 dac~;
#X obj 646 388 readsf~;
#X obj 721 423 readsf~;
#X obj 743 494 readsf~;
#X obj 439 296 bng 15 250 50 0 empty empty empty 17 7 0 10 -262144
-1 -1;
#X obj 239 399 readsf~;
#X obj 325 614 dac~;
#X obj 317 435 readsf~;
#X obj 392 470 readsf~;
#X obj 414 541 readsf~;
#X obj 135 375 bng 15 250 50 0 empty empty empty 17 7 0 10 -262144
-1 -1;
#X obj -65 478 readsf~;
#X obj 21 693 dac~;
#X obj 13 514 readsf~;
#X msg -65 440 open Music-Box(120BPM).wav \, 1;
#X msg 110 584 open Space-Arp(120BPM).wav \, 1;
#X msg 89 517 open X-Bell(120BPM).wav \, 1;
#X obj 88 549 readsf~;
#X obj 110 620 readsf~;
#X msg 13 478 open Slow-Sweep(120BPM).wav \, 1;
#X msg 239 361 open Music-Box(130BPM).wav \, 1;
#X msg 317 399 open Slow-Sweep(130BPM).wav \, 1;
#X msg 393 438 open X-Bell(130BPM).wav \, 1;
#X msg 414 505 open Space-Arp(130BPM).wav \, 1;
#X msg 568 314 open Music-Box(140BPM).wav \, 1;
#X msg 646 352 open Slow-Sweep(140BPM).wav \, 1;
#X msg 722 391 open X-Bell(140BPM).wav \, 1;
#X msg 743 458 open Space-Arp(140BPM).wav \, 1;
#X msg 939 410 open Music-Box(150BPM).wav \, 1;
#X msg 1017 448 open Slow-Sweep(150BPM).wav \, 1;
#X msg 1093 487 open X-Bell(150BPM).wav \, 1;
#X msg 1114 554 open Space-Arp(150BPM).wav \, 1;
#X floatatom 768 228 5 0 0 0 - - -;
#X floatatom 1133 260 5 0 0 0 - - -;
#X floatatom 615 123 5 0 0 0 - - -;
#X obj 615 154 select 1 2 3 4;
#X floatatom 709 154 5 0 0 0 - - -;
#X connect 0 0 36 0;
#X connect 0 0 38 0;
#X connect 0 0 39 0;
#X connect 0 0 37 0;
#X connect 1 0 2 0;
#X connect 3 0 2 0;
#X connect 4 0 2 0;
#X connect 5 0 2 0;
#X connect 6 0 32 0;
#X connect 6 0 34 0;
#X connect 6 0 35 0;
#X connect 6 0 33 0;
#X connect 7 0 8 0;
#X connect 9 0 8 0;
#X connect 10 0 8 0;
#X connect 11 0 8 0;
#X connect 12 0 28 0;
#X connect 12 0 30 0;
#X connect 12 0 31 0;
#X connect 12 0 29 0;
#X connect 13 0 14 0;
#X connect 15 0 14 0;
#X connect 16 0 14 0;
#X connect 17 0 14 0;
#X connect 18 0 22 0;
#X connect 18 0 24 0;
#X connect 18 0 27 0;
#X connect 18 0 23 0;
#X connect 19 0 20 0;
#X connect 21 0 20 0;
#X connect 22 0 19 0;
#X connect 23 0 26 0;
#X connect 24 0 25 0;
#X connect 25 0 20 0;
#X connect 26 0 20 0;
#X connect 27 0 21 0;
#X connect 28 0 13 0;
#X connect 29 0 15 0;
#X connect 30 0 16 0;
#X connect 31 0 17 0;
#X connect 32 0 7 0;
#X connect 33 0 9 0;
#X connect 34 0 10 0;
#X connect 35 0 11 0;
#X connect 36 0 1 0;
#X connect 37 0 3 0;
#X connect 38 0 4 0;
#X connect 39 0 5 0;
#X connect 40 0 6 0;
#X connect 41 0 0 0;
#X connect 42 0 43 0;
#X connect 43 0 18 0;
#X connect 43 1 12 0;
#X connect 43 2 40 0;
#X connect 43 3 41 0;
#X connect 43 4 44 0;
